<mxfile host="65bd71144e">
    <diagram id="HgPerFzOMYKIjcxG574p" name="Page-1">
        <mxGraphModel dx="854" dy="532" grid="1" gridSize="10" guides="1" tooltips="1" connect="1" arrows="1" fold="1" page="1" pageScale="1" pageWidth="1169" pageHeight="827" math="0" shadow="0">
            <root>
                <mxCell id="0"/>
                <mxCell id="1" parent="0"/>
                <mxCell id="181" value="" style="whiteSpace=wrap;html=1;strokeColor=#BD7000;fillColor=#f0a30a;fontColor=#000000;" vertex="1" parent="1">
                    <mxGeometry x="80" y="7.5" width="830" height="60" as="geometry"/>
                </mxCell>
                <mxCell id="176" value="" style="edgeStyle=none;html=1;" edge="1" parent="1" source="2" target="115">
                    <mxGeometry relative="1" as="geometry"/>
                </mxCell>
                <mxCell id="180" style="edgeStyle=none;html=1;" edge="1" parent="1" source="2">
                    <mxGeometry relative="1" as="geometry">
                        <mxPoint x="230" y="340" as="targetPoint"/>
                        <Array as="points">
                            <mxPoint x="280" y="340"/>
                        </Array>
                    </mxGeometry>
                </mxCell>
                <mxCell id="2" value="" style="shape=table;startSize=0;container=1;collapsible=0;childLayout=tableLayout;" vertex="1" parent="1">
                    <mxGeometry x="100" y="80" width="400" height="230" as="geometry"/>
                </mxCell>
                <mxCell id="3" value="" style="shape=tableRow;horizontal=0;startSize=0;swimlaneHead=0;swimlaneBody=0;top=0;left=0;bottom=0;right=0;collapsible=0;dropTarget=0;fillColor=none;points=[[0,0.5],[1,0.5]];portConstraint=eastwest;" vertex="1" parent="2">
                    <mxGeometry width="400" height="38" as="geometry"/>
                </mxCell>
                <mxCell id="4" value="" style="shape=partialRectangle;html=1;whiteSpace=wrap;connectable=0;overflow=hidden;fillColor=#647687;top=0;left=0;bottom=0;right=0;pointerEvents=1;strokeColor=#314354;fontColor=#ffffff;" vertex="1" parent="3">
                    <mxGeometry width="44" height="38" as="geometry">
                        <mxRectangle width="44" height="38" as="alternateBounds"/>
                    </mxGeometry>
                </mxCell>
                <mxCell id="5" value="1" style="shape=partialRectangle;html=1;whiteSpace=wrap;connectable=0;overflow=hidden;top=0;left=0;bottom=0;right=0;pointerEvents=1;fillColor=#647687;strokeColor=#314354;fontColor=#ffffff;" vertex="1" parent="3">
                    <mxGeometry x="44" width="45" height="38" as="geometry">
                        <mxRectangle width="45" height="38" as="alternateBounds"/>
                    </mxGeometry>
                </mxCell>
                <mxCell id="6" value="2" style="shape=partialRectangle;html=1;whiteSpace=wrap;connectable=0;overflow=hidden;top=0;left=0;bottom=0;right=0;pointerEvents=1;fillColor=#647687;strokeColor=#314354;fontColor=#ffffff;" vertex="1" parent="3">
                    <mxGeometry x="89" width="44" height="38" as="geometry">
                        <mxRectangle width="44" height="38" as="alternateBounds"/>
                    </mxGeometry>
                </mxCell>
                <mxCell id="7" value="3" style="shape=partialRectangle;html=1;whiteSpace=wrap;connectable=0;overflow=hidden;fillColor=#647687;top=0;left=0;bottom=0;right=0;pointerEvents=1;strokeColor=#314354;fontColor=#ffffff;" vertex="1" parent="3">
                    <mxGeometry x="133" width="45" height="38" as="geometry">
                        <mxRectangle width="45" height="38" as="alternateBounds"/>
                    </mxGeometry>
                </mxCell>
                <mxCell id="8" value="4" style="shape=partialRectangle;html=1;whiteSpace=wrap;connectable=0;overflow=hidden;fillColor=#647687;top=0;left=0;bottom=0;right=0;pointerEvents=1;strokeColor=#314354;fontColor=#ffffff;" vertex="1" parent="3">
                    <mxGeometry x="178" width="44" height="38" as="geometry">
                        <mxRectangle width="44" height="38" as="alternateBounds"/>
                    </mxGeometry>
                </mxCell>
                <mxCell id="9" value="5" style="shape=partialRectangle;html=1;whiteSpace=wrap;connectable=0;overflow=hidden;fillColor=#647687;top=0;left=0;bottom=0;right=0;pointerEvents=1;strokeColor=#314354;fontColor=#ffffff;" vertex="1" parent="3">
                    <mxGeometry x="222" width="45" height="38" as="geometry">
                        <mxRectangle width="45" height="38" as="alternateBounds"/>
                    </mxGeometry>
                </mxCell>
                <mxCell id="10" value="6" style="shape=partialRectangle;html=1;whiteSpace=wrap;connectable=0;overflow=hidden;fillColor=#647687;top=0;left=0;bottom=0;right=0;pointerEvents=1;strokeColor=#314354;fontColor=#ffffff;" vertex="1" parent="3">
                    <mxGeometry x="267" width="44" height="38" as="geometry">
                        <mxRectangle width="44" height="38" as="alternateBounds"/>
                    </mxGeometry>
                </mxCell>
                <mxCell id="11" value="7" style="shape=partialRectangle;html=1;whiteSpace=wrap;connectable=0;overflow=hidden;fillColor=#647687;top=0;left=0;bottom=0;right=0;pointerEvents=1;strokeColor=#314354;fontColor=#ffffff;" vertex="1" parent="3">
                    <mxGeometry x="311" width="45" height="38" as="geometry">
                        <mxRectangle width="45" height="38" as="alternateBounds"/>
                    </mxGeometry>
                </mxCell>
                <mxCell id="12" value="8" style="shape=partialRectangle;html=1;whiteSpace=wrap;connectable=0;overflow=hidden;fillColor=#647687;top=0;left=0;bottom=0;right=0;pointerEvents=1;strokeColor=#314354;fontColor=#ffffff;" vertex="1" parent="3">
                    <mxGeometry x="356" width="44" height="38" as="geometry">
                        <mxRectangle width="44" height="38" as="alternateBounds"/>
                    </mxGeometry>
                </mxCell>
                <mxCell id="13" value="" style="shape=tableRow;horizontal=0;startSize=0;swimlaneHead=0;swimlaneBody=0;top=1;left=1;bottom=1;right=1;collapsible=0;dropTarget=0;points=[[0,0.5],[1,0.5]];portConstraint=eastwest;strokeColor=#FFFFFF;perimeterSpacing=1;" vertex="1" parent="2">
                    <mxGeometry y="38" width="400" height="39" as="geometry"/>
                </mxCell>
                <mxCell id="14" value="&lt;span style=&quot;color: rgb(240, 240, 240); font-family: Helvetica; font-size: 12px; font-style: normal; font-variant-ligatures: normal; font-variant-caps: normal; font-weight: 400; letter-spacing: normal; orphans: 2; text-align: center; text-indent: 0px; text-transform: none; widows: 2; word-spacing: 0px; -webkit-text-stroke-width: 0px; background-color: rgb(42, 37, 47); text-decoration-thickness: initial; text-decoration-style: initial; text-decoration-color: initial; float: none; display: inline !important;&quot;&gt;8-13&lt;/span&gt;" style="shape=partialRectangle;html=1;whiteSpace=wrap;connectable=0;overflow=hidden;top=1;left=1;bottom=1;right=1;pointerEvents=1;strokeColor=#b85450;perimeterSpacing=1;fillColor=#f8cecc;gradientColor=#ea6b66;" vertex="1" parent="13">
                    <mxGeometry width="44" height="39" as="geometry">
                        <mxRectangle width="44" height="39" as="alternateBounds"/>
                    </mxGeometry>
                </mxCell>
                <mxCell id="15" value="" style="shape=partialRectangle;html=1;whiteSpace=wrap;connectable=0;overflow=hidden;top=1;left=1;bottom=1;right=1;pointerEvents=1;strokeColor=#FFFFFF;perimeterSpacing=1;" vertex="1" parent="13">
                    <mxGeometry x="44" width="45" height="39" as="geometry">
                        <mxRectangle width="45" height="39" as="alternateBounds"/>
                    </mxGeometry>
                </mxCell>
                <mxCell id="16" value="" style="shape=partialRectangle;html=1;whiteSpace=wrap;connectable=0;overflow=hidden;top=1;left=1;bottom=1;right=1;pointerEvents=1;strokeColor=#FFFFFF;perimeterSpacing=1;" vertex="1" parent="13">
                    <mxGeometry x="89" width="44" height="39" as="geometry">
                        <mxRectangle width="44" height="39" as="alternateBounds"/>
                    </mxGeometry>
                </mxCell>
                <mxCell id="17" value="" style="shape=partialRectangle;html=1;whiteSpace=wrap;connectable=0;overflow=hidden;top=1;left=1;bottom=1;right=1;pointerEvents=1;strokeColor=#FFFFFF;perimeterSpacing=1;" vertex="1" parent="13">
                    <mxGeometry x="133" width="45" height="39" as="geometry">
                        <mxRectangle width="45" height="39" as="alternateBounds"/>
                    </mxGeometry>
                </mxCell>
                <mxCell id="18" value="" style="shape=partialRectangle;html=1;whiteSpace=wrap;connectable=0;overflow=hidden;top=1;left=1;bottom=1;right=1;pointerEvents=1;strokeColor=#FFFFFF;perimeterSpacing=1;" vertex="1" parent="13">
                    <mxGeometry x="178" width="44" height="39" as="geometry">
                        <mxRectangle width="44" height="39" as="alternateBounds"/>
                    </mxGeometry>
                </mxCell>
                <mxCell id="19" value="" style="shape=partialRectangle;html=1;whiteSpace=wrap;connectable=0;overflow=hidden;top=1;left=1;bottom=1;right=1;pointerEvents=1;strokeColor=#FFFFFF;perimeterSpacing=1;" vertex="1" parent="13">
                    <mxGeometry x="222" width="45" height="39" as="geometry">
                        <mxRectangle width="45" height="39" as="alternateBounds"/>
                    </mxGeometry>
                </mxCell>
                <mxCell id="20" value="1" style="shape=partialRectangle;html=1;whiteSpace=wrap;connectable=0;overflow=hidden;top=1;left=1;bottom=1;right=1;pointerEvents=1;strokeColor=#FFFFFF;perimeterSpacing=1;fillColor=#413a47;" vertex="1" parent="13">
                    <mxGeometry x="267" width="44" height="39" as="geometry">
                        <mxRectangle width="44" height="39" as="alternateBounds"/>
                    </mxGeometry>
                </mxCell>
                <mxCell id="21" value="" style="shape=partialRectangle;html=1;whiteSpace=wrap;connectable=0;overflow=hidden;top=1;left=1;bottom=1;right=1;pointerEvents=1;strokeColor=#FFFFFF;perimeterSpacing=1;fillColor=#36303B;" vertex="1" parent="13">
                    <mxGeometry x="311" width="45" height="39" as="geometry">
                        <mxRectangle width="45" height="39" as="alternateBounds"/>
                    </mxGeometry>
                </mxCell>
                <mxCell id="22" value="" style="shape=partialRectangle;html=1;whiteSpace=wrap;connectable=0;overflow=hidden;top=1;left=1;bottom=1;right=1;pointerEvents=1;strokeColor=#FFFFFF;perimeterSpacing=1;" vertex="1" parent="13">
                    <mxGeometry x="356" width="44" height="39" as="geometry">
                        <mxRectangle width="44" height="39" as="alternateBounds"/>
                    </mxGeometry>
                </mxCell>
                <mxCell id="23" value="" style="shape=tableRow;horizontal=0;startSize=0;swimlaneHead=0;swimlaneBody=0;top=1;left=1;bottom=1;right=1;collapsible=0;dropTarget=0;points=[[0,0.5],[1,0.5]];portConstraint=eastwest;strokeColor=#FFFFFF;perimeterSpacing=1;" vertex="1" parent="2">
                    <mxGeometry y="77" width="400" height="38" as="geometry"/>
                </mxCell>
                <mxCell id="24" value="&lt;span style=&quot;color: rgb(240, 240, 240); font-family: Helvetica; font-size: 12px; font-style: normal; font-variant-ligatures: normal; font-variant-caps: normal; font-weight: 400; letter-spacing: normal; orphans: 2; text-align: center; text-indent: 0px; text-transform: none; widows: 2; word-spacing: 0px; -webkit-text-stroke-width: 0px; background-color: rgb(42, 37, 47); text-decoration-thickness: initial; text-decoration-style: initial; text-decoration-color: initial; float: none; display: inline !important;&quot;&gt;8-17&lt;/span&gt;" style="shape=partialRectangle;html=1;whiteSpace=wrap;connectable=0;overflow=hidden;top=1;left=1;bottom=1;right=1;pointerEvents=1;strokeColor=#2D7600;perimeterSpacing=1;fillColor=#60a917;fontColor=#ffffff;" vertex="1" parent="23">
                    <mxGeometry width="44" height="38" as="geometry">
                        <mxRectangle width="44" height="38" as="alternateBounds"/>
                    </mxGeometry>
                </mxCell>
                <mxCell id="25" value="0" style="shape=partialRectangle;html=1;whiteSpace=wrap;connectable=0;overflow=hidden;top=1;left=1;bottom=1;right=1;pointerEvents=1;strokeColor=#FFFFFF;perimeterSpacing=1;" vertex="1" parent="23">
                    <mxGeometry x="44" width="45" height="38" as="geometry">
                        <mxRectangle width="45" height="38" as="alternateBounds"/>
                    </mxGeometry>
                </mxCell>
                <mxCell id="26" value="1" style="shape=partialRectangle;html=1;whiteSpace=wrap;connectable=0;overflow=hidden;top=1;left=1;bottom=1;right=1;pointerEvents=1;strokeColor=#FFFFFF;perimeterSpacing=1;" vertex="1" parent="23">
                    <mxGeometry x="89" width="44" height="38" as="geometry">
                        <mxRectangle width="44" height="38" as="alternateBounds"/>
                    </mxGeometry>
                </mxCell>
                <mxCell id="27" value="1" style="shape=partialRectangle;html=1;whiteSpace=wrap;connectable=0;overflow=hidden;top=1;left=1;bottom=1;right=1;pointerEvents=1;strokeColor=#FFFFFF;perimeterSpacing=1;" vertex="1" parent="23">
                    <mxGeometry x="133" width="45" height="38" as="geometry">
                        <mxRectangle width="45" height="38" as="alternateBounds"/>
                    </mxGeometry>
                </mxCell>
                <mxCell id="28" value="LD" style="shape=partialRectangle;html=1;whiteSpace=wrap;connectable=0;overflow=hidden;top=1;left=1;bottom=1;right=1;pointerEvents=1;strokeColor=#FFFFFF;perimeterSpacing=1;" vertex="1" parent="23">
                    <mxGeometry x="178" width="44" height="38" as="geometry">
                        <mxRectangle width="44" height="38" as="alternateBounds"/>
                    </mxGeometry>
                </mxCell>
                <mxCell id="29" value="" style="shape=partialRectangle;html=1;whiteSpace=wrap;connectable=0;overflow=hidden;top=1;left=1;bottom=1;right=1;pointerEvents=1;strokeColor=#FFFFFF;perimeterSpacing=1;" vertex="1" parent="23">
                    <mxGeometry x="222" width="45" height="38" as="geometry">
                        <mxRectangle width="45" height="38" as="alternateBounds"/>
                    </mxGeometry>
                </mxCell>
                <mxCell id="30" value="" style="shape=partialRectangle;html=1;whiteSpace=wrap;connectable=0;overflow=hidden;top=1;left=1;bottom=1;right=1;pointerEvents=1;strokeColor=#FFFFFF;perimeterSpacing=1;fillColor=#413a47;" vertex="1" parent="23">
                    <mxGeometry x="267" width="44" height="38" as="geometry">
                        <mxRectangle width="44" height="38" as="alternateBounds"/>
                    </mxGeometry>
                </mxCell>
                <mxCell id="31" value="" style="shape=partialRectangle;html=1;whiteSpace=wrap;connectable=0;overflow=hidden;top=1;left=1;bottom=1;right=1;pointerEvents=1;strokeColor=#FFFFFF;perimeterSpacing=1;fillColor=#36303B;" vertex="1" parent="23">
                    <mxGeometry x="311" width="45" height="38" as="geometry">
                        <mxRectangle width="45" height="38" as="alternateBounds"/>
                    </mxGeometry>
                </mxCell>
                <mxCell id="32" value="" style="shape=partialRectangle;html=1;whiteSpace=wrap;connectable=0;overflow=hidden;top=1;left=1;bottom=1;right=1;pointerEvents=1;strokeColor=#FFFFFF;perimeterSpacing=1;" vertex="1" parent="23">
                    <mxGeometry x="356" width="44" height="38" as="geometry">
                        <mxRectangle width="44" height="38" as="alternateBounds"/>
                    </mxGeometry>
                </mxCell>
                <mxCell id="33" value="" style="shape=tableRow;horizontal=0;startSize=0;swimlaneHead=0;swimlaneBody=0;top=1;left=1;bottom=1;right=1;collapsible=0;dropTarget=0;points=[[0,0.5],[1,0.5]];portConstraint=eastwest;strokeColor=#FFFFFF;perimeterSpacing=1;" vertex="1" parent="2">
                    <mxGeometry y="115" width="400" height="38" as="geometry"/>
                </mxCell>
                <mxCell id="34" value="&lt;span style=&quot;color: rgb(240, 240, 240); font-family: Helvetica; font-size: 12px; font-style: normal; font-variant-ligatures: normal; font-variant-caps: normal; font-weight: 400; letter-spacing: normal; orphans: 2; text-align: center; text-indent: 0px; text-transform: none; widows: 2; word-spacing: 0px; -webkit-text-stroke-width: 0px; text-decoration-thickness: initial; text-decoration-style: initial; text-decoration-color: initial; float: none; display: inline !important; background-color: rgb(0, 153, 0);&quot;&gt;8-20&lt;/span&gt;" style="shape=partialRectangle;html=1;whiteSpace=wrap;connectable=0;overflow=hidden;top=1;left=1;bottom=1;right=1;pointerEvents=1;strokeColor=#005700;perimeterSpacing=1;fillColor=#008a00;fontColor=#ffffff;" vertex="1" parent="33">
                    <mxGeometry width="44" height="38" as="geometry">
                        <mxRectangle width="44" height="38" as="alternateBounds"/>
                    </mxGeometry>
                </mxCell>
                <mxCell id="35" value="2" style="shape=partialRectangle;html=1;whiteSpace=wrap;connectable=0;overflow=hidden;top=1;left=1;bottom=1;right=1;pointerEvents=1;strokeColor=#FFFFFF;perimeterSpacing=1;" vertex="1" parent="33">
                    <mxGeometry x="44" width="45" height="38" as="geometry">
                        <mxRectangle width="45" height="38" as="alternateBounds"/>
                    </mxGeometry>
                </mxCell>
                <mxCell id="36" value="1" style="shape=partialRectangle;html=1;whiteSpace=wrap;connectable=0;overflow=hidden;top=1;left=1;bottom=1;right=1;pointerEvents=1;strokeColor=#FFFFFF;perimeterSpacing=1;" vertex="1" parent="33">
                    <mxGeometry x="89" width="44" height="38" as="geometry">
                        <mxRectangle width="44" height="38" as="alternateBounds"/>
                    </mxGeometry>
                </mxCell>
                <mxCell id="37" value="1" style="shape=partialRectangle;html=1;whiteSpace=wrap;connectable=0;overflow=hidden;top=1;left=1;bottom=1;right=1;pointerEvents=1;strokeColor=#FFFFFF;perimeterSpacing=1;" vertex="1" parent="33">
                    <mxGeometry x="133" width="45" height="38" as="geometry">
                        <mxRectangle width="45" height="38" as="alternateBounds"/>
                    </mxGeometry>
                </mxCell>
                <mxCell id="38" value="1" style="shape=partialRectangle;html=1;whiteSpace=wrap;connectable=0;overflow=hidden;top=1;left=1;bottom=1;right=1;pointerEvents=1;strokeColor=#FFFFFF;perimeterSpacing=1;" vertex="1" parent="33">
                    <mxGeometry x="178" width="44" height="38" as="geometry">
                        <mxRectangle width="44" height="38" as="alternateBounds"/>
                    </mxGeometry>
                </mxCell>
                <mxCell id="39" value="1" style="shape=partialRectangle;html=1;whiteSpace=wrap;connectable=0;overflow=hidden;top=1;left=1;bottom=1;right=1;pointerEvents=1;strokeColor=#FFFFFF;perimeterSpacing=1;" vertex="1" parent="33">
                    <mxGeometry x="222" width="45" height="38" as="geometry">
                        <mxRectangle width="45" height="38" as="alternateBounds"/>
                    </mxGeometry>
                </mxCell>
                <mxCell id="40" value="" style="shape=partialRectangle;html=1;whiteSpace=wrap;connectable=0;overflow=hidden;top=1;left=1;bottom=1;right=1;pointerEvents=1;strokeColor=#FFFFFF;perimeterSpacing=1;fillColor=#413a47;" vertex="1" parent="33">
                    <mxGeometry x="267" width="44" height="38" as="geometry">
                        <mxRectangle width="44" height="38" as="alternateBounds"/>
                    </mxGeometry>
                </mxCell>
                <mxCell id="41" value="1" style="shape=partialRectangle;html=1;whiteSpace=wrap;connectable=0;overflow=hidden;top=1;left=1;bottom=1;right=1;pointerEvents=1;strokeColor=#FFFFFF;perimeterSpacing=1;fillColor=#36303B;" vertex="1" parent="33">
                    <mxGeometry x="311" width="45" height="38" as="geometry">
                        <mxRectangle width="45" height="38" as="alternateBounds"/>
                    </mxGeometry>
                </mxCell>
                <mxCell id="42" value="1" style="shape=partialRectangle;html=1;whiteSpace=wrap;connectable=0;overflow=hidden;top=1;left=1;bottom=1;right=1;pointerEvents=1;strokeColor=#FFFFFF;perimeterSpacing=1;" vertex="1" parent="33">
                    <mxGeometry x="356" width="44" height="38" as="geometry">
                        <mxRectangle width="44" height="38" as="alternateBounds"/>
                    </mxGeometry>
                </mxCell>
                <mxCell id="43" value="" style="shape=tableRow;horizontal=0;startSize=0;swimlaneHead=0;swimlaneBody=0;top=1;left=1;bottom=1;right=1;collapsible=0;dropTarget=0;points=[[0,0.5],[1,0.5]];portConstraint=eastwest;strokeColor=#FFFFFF;perimeterSpacing=1;" vertex="1" parent="2">
                    <mxGeometry y="153" width="400" height="39" as="geometry"/>
                </mxCell>
                <mxCell id="44" value="20-8" style="shape=partialRectangle;html=1;whiteSpace=wrap;connectable=0;overflow=hidden;top=1;left=1;bottom=1;right=1;pointerEvents=1;strokeColor=#001DBC;perimeterSpacing=1;fillColor=#0050ef;fontColor=#ffffff;" vertex="1" parent="43">
                    <mxGeometry width="44" height="39" as="geometry">
                        <mxRectangle width="44" height="39" as="alternateBounds"/>
                    </mxGeometry>
                </mxCell>
                <mxCell id="45" value="" style="shape=partialRectangle;html=1;whiteSpace=wrap;connectable=0;overflow=hidden;top=1;left=1;bottom=1;right=1;pointerEvents=1;strokeColor=#FFFFFF;perimeterSpacing=1;" vertex="1" parent="43">
                    <mxGeometry x="44" width="45" height="39" as="geometry">
                        <mxRectangle width="45" height="39" as="alternateBounds"/>
                    </mxGeometry>
                </mxCell>
                <mxCell id="46" value="" style="shape=partialRectangle;html=1;whiteSpace=wrap;connectable=0;overflow=hidden;top=1;left=1;bottom=1;right=1;pointerEvents=1;strokeColor=#FFFFFF;perimeterSpacing=1;" vertex="1" parent="43">
                    <mxGeometry x="89" width="44" height="39" as="geometry">
                        <mxRectangle width="44" height="39" as="alternateBounds"/>
                    </mxGeometry>
                </mxCell>
                <mxCell id="47" value="1" style="shape=partialRectangle;html=1;whiteSpace=wrap;connectable=0;overflow=hidden;top=1;left=1;bottom=1;right=1;pointerEvents=1;strokeColor=#FFFFFF;perimeterSpacing=1;" vertex="1" parent="43">
                    <mxGeometry x="133" width="45" height="39" as="geometry">
                        <mxRectangle width="45" height="39" as="alternateBounds"/>
                    </mxGeometry>
                </mxCell>
                <mxCell id="48" value="" style="shape=partialRectangle;html=1;whiteSpace=wrap;connectable=0;overflow=hidden;top=1;left=1;bottom=1;right=1;pointerEvents=1;strokeColor=#FFFFFF;perimeterSpacing=1;" vertex="1" parent="43">
                    <mxGeometry x="178" width="44" height="39" as="geometry">
                        <mxRectangle width="44" height="39" as="alternateBounds"/>
                    </mxGeometry>
                </mxCell>
                <mxCell id="49" value="" style="shape=partialRectangle;html=1;whiteSpace=wrap;connectable=0;overflow=hidden;top=1;left=1;bottom=1;right=1;pointerEvents=1;strokeColor=#FFFFFF;perimeterSpacing=1;" vertex="1" parent="43">
                    <mxGeometry x="222" width="45" height="39" as="geometry">
                        <mxRectangle width="45" height="39" as="alternateBounds"/>
                    </mxGeometry>
                </mxCell>
                <mxCell id="50" value="" style="shape=partialRectangle;html=1;whiteSpace=wrap;connectable=0;overflow=hidden;top=1;left=1;bottom=1;right=1;pointerEvents=1;strokeColor=#FFFFFF;perimeterSpacing=1;fillColor=#413a47;" vertex="1" parent="43">
                    <mxGeometry x="267" width="44" height="39" as="geometry">
                        <mxRectangle width="44" height="39" as="alternateBounds"/>
                    </mxGeometry>
                </mxCell>
                <mxCell id="51" value="1" style="shape=partialRectangle;html=1;whiteSpace=wrap;connectable=0;overflow=hidden;top=1;left=1;bottom=1;right=1;pointerEvents=1;strokeColor=#FFFFFF;perimeterSpacing=1;fillColor=#36303B;" vertex="1" parent="43">
                    <mxGeometry x="311" width="45" height="39" as="geometry">
                        <mxRectangle width="45" height="39" as="alternateBounds"/>
                    </mxGeometry>
                </mxCell>
                <mxCell id="52" value="1" style="shape=partialRectangle;html=1;whiteSpace=wrap;connectable=0;overflow=hidden;top=1;left=1;bottom=1;right=1;pointerEvents=1;strokeColor=#FFFFFF;perimeterSpacing=1;" vertex="1" parent="43">
                    <mxGeometry x="356" width="44" height="39" as="geometry">
                        <mxRectangle width="44" height="39" as="alternateBounds"/>
                    </mxGeometry>
                </mxCell>
                <mxCell id="53" value="" style="shape=tableRow;horizontal=0;startSize=0;swimlaneHead=0;swimlaneBody=0;top=1;left=1;bottom=1;right=1;collapsible=0;dropTarget=0;points=[[0,0.5],[1,0.5]];portConstraint=eastwest;" vertex="1" parent="2">
                    <mxGeometry y="192" width="400" height="38" as="geometry"/>
                </mxCell>
                <mxCell id="54" value="ON CALL" style="shape=partialRectangle;html=1;whiteSpace=wrap;connectable=0;overflow=hidden;top=1;left=1;bottom=1;right=1;pointerEvents=1;fillColor=#1ba1e2;fontColor=#ffffff;strokeColor=#006EAF;" vertex="1" parent="53">
                    <mxGeometry width="44" height="38" as="geometry">
                        <mxRectangle width="44" height="38" as="alternateBounds"/>
                    </mxGeometry>
                </mxCell>
                <mxCell id="55" value="LD" style="shape=partialRectangle;html=1;whiteSpace=wrap;connectable=0;overflow=hidden;top=1;left=1;bottom=1;right=1;pointerEvents=1;" vertex="1" parent="53">
                    <mxGeometry x="44" width="45" height="38" as="geometry">
                        <mxRectangle width="45" height="38" as="alternateBounds"/>
                    </mxGeometry>
                </mxCell>
                <mxCell id="56" value="1" style="shape=partialRectangle;html=1;whiteSpace=wrap;connectable=0;overflow=hidden;top=1;left=1;bottom=1;right=1;pointerEvents=1;" vertex="1" parent="53">
                    <mxGeometry x="89" width="44" height="38" as="geometry">
                        <mxRectangle width="44" height="38" as="alternateBounds"/>
                    </mxGeometry>
                </mxCell>
                <mxCell id="57" value="" style="shape=partialRectangle;html=1;whiteSpace=wrap;connectable=0;overflow=hidden;top=1;left=1;bottom=1;right=1;pointerEvents=1;" vertex="1" parent="53">
                    <mxGeometry x="133" width="45" height="38" as="geometry">
                        <mxRectangle width="45" height="38" as="alternateBounds"/>
                    </mxGeometry>
                </mxCell>
                <mxCell id="58" value="" style="shape=partialRectangle;html=1;whiteSpace=wrap;connectable=0;overflow=hidden;top=1;left=1;bottom=1;right=1;pointerEvents=1;" vertex="1" parent="53">
                    <mxGeometry x="178" width="44" height="38" as="geometry">
                        <mxRectangle width="44" height="38" as="alternateBounds"/>
                    </mxGeometry>
                </mxCell>
                <mxCell id="59" value="" style="shape=partialRectangle;html=1;whiteSpace=wrap;connectable=0;overflow=hidden;top=1;left=1;bottom=1;right=1;pointerEvents=1;" vertex="1" parent="53">
                    <mxGeometry x="222" width="45" height="38" as="geometry">
                        <mxRectangle width="45" height="38" as="alternateBounds"/>
                    </mxGeometry>
                </mxCell>
                <mxCell id="60" value="" style="shape=partialRectangle;html=1;whiteSpace=wrap;connectable=0;overflow=hidden;top=1;left=1;bottom=1;right=1;pointerEvents=1;fillColor=#413a47;" vertex="1" parent="53">
                    <mxGeometry x="267" width="44" height="38" as="geometry">
                        <mxRectangle width="44" height="38" as="alternateBounds"/>
                    </mxGeometry>
                </mxCell>
                <mxCell id="61" value="" style="shape=partialRectangle;html=1;whiteSpace=wrap;connectable=0;overflow=hidden;top=1;left=1;bottom=1;right=1;pointerEvents=1;fillColor=#36303B;" vertex="1" parent="53">
                    <mxGeometry x="311" width="45" height="38" as="geometry">
                        <mxRectangle width="45" height="38" as="alternateBounds"/>
                    </mxGeometry>
                </mxCell>
                <mxCell id="62" value="" style="shape=partialRectangle;html=1;whiteSpace=wrap;connectable=0;overflow=hidden;top=1;left=1;bottom=1;right=1;pointerEvents=1;" vertex="1" parent="53">
                    <mxGeometry x="356" width="44" height="38" as="geometry">
                        <mxRectangle width="44" height="38" as="alternateBounds"/>
                    </mxGeometry>
                </mxCell>
                <mxCell id="106" value="8" style="whiteSpace=wrap;html=1;align=center;" vertex="1" parent="1">
                    <mxGeometry x="170" y="20" width="40" height="35" as="geometry"/>
                </mxCell>
                <mxCell id="107" value="&lt;span style=&quot;text-align: left;&quot;&gt;Num. &lt;br&gt;Op. Th. :&lt;/span&gt;" style="text;html=1;align=center;verticalAlign=middle;resizable=0;points=[];autosize=1;strokeColor=none;fillColor=none;" vertex="1" parent="1">
                    <mxGeometry x="100" y="17.5" width="70" height="40" as="geometry"/>
                </mxCell>
                <mxCell id="108" value="Staff&amp;nbsp;needed&lt;br&gt;nights:&amp;nbsp;" style="text;html=1;align=center;verticalAlign=middle;resizable=0;points=[];autosize=1;strokeColor=none;fillColor=none;" vertex="1" parent="1">
                    <mxGeometry x="260" y="20" width="90" height="40" as="geometry"/>
                </mxCell>
                <mxCell id="109" value="2" style="whiteSpace=wrap;html=1;" vertex="1" parent="1">
                    <mxGeometry x="350" y="25" width="40" height="35" as="geometry"/>
                </mxCell>
                <mxCell id="110" value="Staff&amp;nbsp;needed&lt;br&gt;Sundays:&amp;nbsp;" style="text;html=1;align=center;verticalAlign=middle;resizable=0;points=[];autosize=1;strokeColor=none;fillColor=none;" vertex="1" parent="1">
                    <mxGeometry x="440" y="22.5" width="90" height="40" as="geometry"/>
                </mxCell>
                <mxCell id="111" value="2" style="whiteSpace=wrap;html=1;" vertex="1" parent="1">
                    <mxGeometry x="530" y="22.5" width="40" height="40" as="geometry"/>
                </mxCell>
                <mxCell id="112" value="Staff&amp;nbsp;needed&lt;br&gt;Saturdays:&amp;nbsp;" style="text;html=1;align=center;verticalAlign=middle;resizable=0;points=[];autosize=1;strokeColor=none;fillColor=none;" vertex="1" parent="1">
                    <mxGeometry x="615" y="22.5" width="90" height="40" as="geometry"/>
                </mxCell>
                <mxCell id="113" value="4" style="whiteSpace=wrap;html=1;" vertex="1" parent="1">
                    <mxGeometry x="700" y="22.5" width="40" height="40" as="geometry"/>
                </mxCell>
                <mxCell id="114" value="Populate" style="whiteSpace=wrap;html=1;fillColor=#60a917;fontColor=#ffffff;strokeColor=#2D7600;" vertex="1" parent="1">
                    <mxGeometry x="790" y="20" width="90" height="40" as="geometry"/>
                </mxCell>
                <mxCell id="115" value="" style="shape=table;startSize=0;container=1;collapsible=0;childLayout=tableLayout;" vertex="1" parent="1">
                    <mxGeometry x="500" y="80" width="400" height="230" as="geometry"/>
                </mxCell>
                <mxCell id="116" value="" style="shape=tableRow;horizontal=0;startSize=0;swimlaneHead=0;swimlaneBody=0;top=0;left=0;bottom=0;right=0;collapsible=0;dropTarget=0;fillColor=none;points=[[0,0.5],[1,0.5]];portConstraint=eastwest;" vertex="1" parent="115">
                    <mxGeometry width="400" height="38" as="geometry"/>
                </mxCell>
                <mxCell id="117" value="9" style="shape=partialRectangle;html=1;whiteSpace=wrap;connectable=0;overflow=hidden;fillColor=#647687;top=0;left=0;bottom=0;right=0;pointerEvents=1;strokeColor=#314354;fontColor=#ffffff;" vertex="1" parent="116">
                    <mxGeometry width="44" height="38" as="geometry">
                        <mxRectangle width="44" height="38" as="alternateBounds"/>
                    </mxGeometry>
                </mxCell>
                <mxCell id="118" value="11" style="shape=partialRectangle;html=1;whiteSpace=wrap;connectable=0;overflow=hidden;top=0;left=0;bottom=0;right=0;pointerEvents=1;fillColor=#647687;strokeColor=#314354;fontColor=#ffffff;" vertex="1" parent="116">
                    <mxGeometry x="44" width="45" height="38" as="geometry">
                        <mxRectangle width="45" height="38" as="alternateBounds"/>
                    </mxGeometry>
                </mxCell>
                <mxCell id="119" value="12" style="shape=partialRectangle;html=1;whiteSpace=wrap;connectable=0;overflow=hidden;top=0;left=0;bottom=0;right=0;pointerEvents=1;fillColor=#647687;strokeColor=#314354;fontColor=#ffffff;" vertex="1" parent="116">
                    <mxGeometry x="89" width="44" height="38" as="geometry">
                        <mxRectangle width="44" height="38" as="alternateBounds"/>
                    </mxGeometry>
                </mxCell>
                <mxCell id="120" value="13" style="shape=partialRectangle;html=1;whiteSpace=wrap;connectable=0;overflow=hidden;fillColor=#647687;top=0;left=0;bottom=0;right=0;pointerEvents=1;strokeColor=#314354;fontColor=#ffffff;" vertex="1" parent="116">
                    <mxGeometry x="133" width="45" height="38" as="geometry">
                        <mxRectangle width="45" height="38" as="alternateBounds"/>
                    </mxGeometry>
                </mxCell>
                <mxCell id="121" value="14" style="shape=partialRectangle;html=1;whiteSpace=wrap;connectable=0;overflow=hidden;fillColor=#647687;top=0;left=0;bottom=0;right=0;pointerEvents=1;strokeColor=#314354;fontColor=#ffffff;" vertex="1" parent="116">
                    <mxGeometry x="178" width="44" height="38" as="geometry">
                        <mxRectangle width="44" height="38" as="alternateBounds"/>
                    </mxGeometry>
                </mxCell>
                <mxCell id="122" value="15" style="shape=partialRectangle;html=1;whiteSpace=wrap;connectable=0;overflow=hidden;fillColor=#647687;top=0;left=0;bottom=0;right=0;pointerEvents=1;strokeColor=#314354;fontColor=#ffffff;" vertex="1" parent="116">
                    <mxGeometry x="222" width="45" height="38" as="geometry">
                        <mxRectangle width="45" height="38" as="alternateBounds"/>
                    </mxGeometry>
                </mxCell>
                <mxCell id="123" value="16" style="shape=partialRectangle;html=1;whiteSpace=wrap;connectable=0;overflow=hidden;fillColor=#647687;top=0;left=0;bottom=0;right=0;pointerEvents=1;strokeColor=#314354;fontColor=#ffffff;" vertex="1" parent="116">
                    <mxGeometry x="267" width="44" height="38" as="geometry">
                        <mxRectangle width="44" height="38" as="alternateBounds"/>
                    </mxGeometry>
                </mxCell>
                <mxCell id="124" value="17" style="shape=partialRectangle;html=1;whiteSpace=wrap;connectable=0;overflow=hidden;fillColor=#647687;top=0;left=0;bottom=0;right=0;pointerEvents=1;strokeColor=#314354;fontColor=#ffffff;" vertex="1" parent="116">
                    <mxGeometry x="311" width="45" height="38" as="geometry">
                        <mxRectangle width="45" height="38" as="alternateBounds"/>
                    </mxGeometry>
                </mxCell>
                <mxCell id="125" value="18" style="shape=partialRectangle;html=1;whiteSpace=wrap;connectable=0;overflow=hidden;fillColor=#647687;top=0;left=0;bottom=0;right=0;pointerEvents=1;strokeColor=#314354;fontColor=#ffffff;" vertex="1" parent="116">
                    <mxGeometry x="356" width="44" height="38" as="geometry">
                        <mxRectangle width="44" height="38" as="alternateBounds"/>
                    </mxGeometry>
                </mxCell>
                <mxCell id="126" value="" style="shape=tableRow;horizontal=0;startSize=0;swimlaneHead=0;swimlaneBody=0;top=1;left=1;bottom=1;right=1;collapsible=0;dropTarget=0;points=[[0,0.5],[1,0.5]];portConstraint=eastwest;strokeColor=#FFFFFF;perimeterSpacing=1;" vertex="1" parent="115">
                    <mxGeometry y="38" width="400" height="39" as="geometry"/>
                </mxCell>
                <mxCell id="127" value="" style="shape=partialRectangle;html=1;whiteSpace=wrap;connectable=0;overflow=hidden;top=1;left=1;bottom=1;right=1;pointerEvents=1;perimeterSpacing=1;" vertex="1" parent="126">
                    <mxGeometry width="44" height="39" as="geometry">
                        <mxRectangle width="44" height="39" as="alternateBounds"/>
                    </mxGeometry>
                </mxCell>
                <mxCell id="128" value="" style="shape=partialRectangle;html=1;whiteSpace=wrap;connectable=0;overflow=hidden;top=1;left=1;bottom=1;right=1;pointerEvents=1;strokeColor=#FFFFFF;perimeterSpacing=1;" vertex="1" parent="126">
                    <mxGeometry x="44" width="45" height="39" as="geometry">
                        <mxRectangle width="45" height="39" as="alternateBounds"/>
                    </mxGeometry>
                </mxCell>
                <mxCell id="129" value="" style="shape=partialRectangle;html=1;whiteSpace=wrap;connectable=0;overflow=hidden;top=1;left=1;bottom=1;right=1;pointerEvents=1;strokeColor=#FFFFFF;perimeterSpacing=1;" vertex="1" parent="126">
                    <mxGeometry x="89" width="44" height="39" as="geometry">
                        <mxRectangle width="44" height="39" as="alternateBounds"/>
                    </mxGeometry>
                </mxCell>
                <mxCell id="130" value="" style="shape=partialRectangle;html=1;whiteSpace=wrap;connectable=0;overflow=hidden;top=1;left=1;bottom=1;right=1;pointerEvents=1;strokeColor=#FFFFFF;perimeterSpacing=1;" vertex="1" parent="126">
                    <mxGeometry x="133" width="45" height="39" as="geometry">
                        <mxRectangle width="45" height="39" as="alternateBounds"/>
                    </mxGeometry>
                </mxCell>
                <mxCell id="131" value="" style="shape=partialRectangle;html=1;whiteSpace=wrap;connectable=0;overflow=hidden;top=1;left=1;bottom=1;right=1;pointerEvents=1;strokeColor=#FFFFFF;perimeterSpacing=1;fillColor=#36303B;" vertex="1" parent="126">
                    <mxGeometry x="178" width="44" height="39" as="geometry">
                        <mxRectangle width="44" height="39" as="alternateBounds"/>
                    </mxGeometry>
                </mxCell>
                <mxCell id="132" value="" style="shape=partialRectangle;html=1;whiteSpace=wrap;connectable=0;overflow=hidden;top=1;left=1;bottom=1;right=1;pointerEvents=1;strokeColor=#FFFFFF;perimeterSpacing=1;fillColor=#36303B;" vertex="1" parent="126">
                    <mxGeometry x="222" width="45" height="39" as="geometry">
                        <mxRectangle width="45" height="39" as="alternateBounds"/>
                    </mxGeometry>
                </mxCell>
                <mxCell id="133" value="1" style="shape=partialRectangle;html=1;whiteSpace=wrap;connectable=0;overflow=hidden;top=1;left=1;bottom=1;right=1;pointerEvents=1;strokeColor=#FFFFFF;perimeterSpacing=1;" vertex="1" parent="126">
                    <mxGeometry x="267" width="44" height="39" as="geometry">
                        <mxRectangle width="44" height="39" as="alternateBounds"/>
                    </mxGeometry>
                </mxCell>
                <mxCell id="134" value="" style="shape=partialRectangle;html=1;whiteSpace=wrap;connectable=0;overflow=hidden;top=1;left=1;bottom=1;right=1;pointerEvents=1;strokeColor=#FFFFFF;perimeterSpacing=1;" vertex="1" parent="126">
                    <mxGeometry x="311" width="45" height="39" as="geometry">
                        <mxRectangle width="45" height="39" as="alternateBounds"/>
                    </mxGeometry>
                </mxCell>
                <mxCell id="135" value="" style="shape=partialRectangle;html=1;whiteSpace=wrap;connectable=0;overflow=hidden;top=1;left=1;bottom=1;right=1;pointerEvents=1;strokeColor=#FFFFFF;perimeterSpacing=1;" vertex="1" parent="126">
                    <mxGeometry x="356" width="44" height="39" as="geometry">
                        <mxRectangle width="44" height="39" as="alternateBounds"/>
                    </mxGeometry>
                </mxCell>
                <mxCell id="136" value="" style="shape=tableRow;horizontal=0;startSize=0;swimlaneHead=0;swimlaneBody=0;top=1;left=1;bottom=1;right=1;collapsible=0;dropTarget=0;points=[[0,0.5],[1,0.5]];portConstraint=eastwest;strokeColor=#FFFFFF;perimeterSpacing=1;" vertex="1" parent="115">
                    <mxGeometry y="77" width="400" height="38" as="geometry"/>
                </mxCell>
                <mxCell id="137" value="" style="shape=partialRectangle;html=1;whiteSpace=wrap;connectable=0;overflow=hidden;top=1;left=1;bottom=1;right=1;pointerEvents=1;perimeterSpacing=1;" vertex="1" parent="136">
                    <mxGeometry width="44" height="38" as="geometry">
                        <mxRectangle width="44" height="38" as="alternateBounds"/>
                    </mxGeometry>
                </mxCell>
                <mxCell id="138" value="0" style="shape=partialRectangle;html=1;whiteSpace=wrap;connectable=0;overflow=hidden;top=1;left=1;bottom=1;right=1;pointerEvents=1;strokeColor=#FFFFFF;perimeterSpacing=1;" vertex="1" parent="136">
                    <mxGeometry x="44" width="45" height="38" as="geometry">
                        <mxRectangle width="45" height="38" as="alternateBounds"/>
                    </mxGeometry>
                </mxCell>
                <mxCell id="139" value="1" style="shape=partialRectangle;html=1;whiteSpace=wrap;connectable=0;overflow=hidden;top=1;left=1;bottom=1;right=1;pointerEvents=1;strokeColor=#FFFFFF;perimeterSpacing=1;" vertex="1" parent="136">
                    <mxGeometry x="89" width="44" height="38" as="geometry">
                        <mxRectangle width="44" height="38" as="alternateBounds"/>
                    </mxGeometry>
                </mxCell>
                <mxCell id="140" value="1" style="shape=partialRectangle;html=1;whiteSpace=wrap;connectable=0;overflow=hidden;top=1;left=1;bottom=1;right=1;pointerEvents=1;strokeColor=#FFFFFF;perimeterSpacing=1;" vertex="1" parent="136">
                    <mxGeometry x="133" width="45" height="38" as="geometry">
                        <mxRectangle width="45" height="38" as="alternateBounds"/>
                    </mxGeometry>
                </mxCell>
                <mxCell id="141" value="LD" style="shape=partialRectangle;html=1;whiteSpace=wrap;connectable=0;overflow=hidden;top=1;left=1;bottom=1;right=1;pointerEvents=1;strokeColor=#FFFFFF;perimeterSpacing=1;fillColor=#36303B;" vertex="1" parent="136">
                    <mxGeometry x="178" width="44" height="38" as="geometry">
                        <mxRectangle width="44" height="38" as="alternateBounds"/>
                    </mxGeometry>
                </mxCell>
                <mxCell id="142" value="" style="shape=partialRectangle;html=1;whiteSpace=wrap;connectable=0;overflow=hidden;top=1;left=1;bottom=1;right=1;pointerEvents=1;strokeColor=#FFFFFF;perimeterSpacing=1;fillColor=#36303B;" vertex="1" parent="136">
                    <mxGeometry x="222" width="45" height="38" as="geometry">
                        <mxRectangle width="45" height="38" as="alternateBounds"/>
                    </mxGeometry>
                </mxCell>
                <mxCell id="143" value="" style="shape=partialRectangle;html=1;whiteSpace=wrap;connectable=0;overflow=hidden;top=1;left=1;bottom=1;right=1;pointerEvents=1;strokeColor=#FFFFFF;perimeterSpacing=1;" vertex="1" parent="136">
                    <mxGeometry x="267" width="44" height="38" as="geometry">
                        <mxRectangle width="44" height="38" as="alternateBounds"/>
                    </mxGeometry>
                </mxCell>
                <mxCell id="144" value="" style="shape=partialRectangle;html=1;whiteSpace=wrap;connectable=0;overflow=hidden;top=1;left=1;bottom=1;right=1;pointerEvents=1;strokeColor=#FFFFFF;perimeterSpacing=1;" vertex="1" parent="136">
                    <mxGeometry x="311" width="45" height="38" as="geometry">
                        <mxRectangle width="45" height="38" as="alternateBounds"/>
                    </mxGeometry>
                </mxCell>
                <mxCell id="145" value="" style="shape=partialRectangle;html=1;whiteSpace=wrap;connectable=0;overflow=hidden;top=1;left=1;bottom=1;right=1;pointerEvents=1;strokeColor=#FFFFFF;perimeterSpacing=1;" vertex="1" parent="136">
                    <mxGeometry x="356" width="44" height="38" as="geometry">
                        <mxRectangle width="44" height="38" as="alternateBounds"/>
                    </mxGeometry>
                </mxCell>
                <mxCell id="146" value="" style="shape=tableRow;horizontal=0;startSize=0;swimlaneHead=0;swimlaneBody=0;top=1;left=1;bottom=1;right=1;collapsible=0;dropTarget=0;points=[[0,0.5],[1,0.5]];portConstraint=eastwest;strokeColor=#FFFFFF;perimeterSpacing=1;" vertex="1" parent="115">
                    <mxGeometry y="115" width="400" height="38" as="geometry"/>
                </mxCell>
                <mxCell id="147" value="" style="shape=partialRectangle;html=1;whiteSpace=wrap;connectable=0;overflow=hidden;top=1;left=1;bottom=1;right=1;pointerEvents=1;perimeterSpacing=1;" vertex="1" parent="146">
                    <mxGeometry width="44" height="38" as="geometry">
                        <mxRectangle width="44" height="38" as="alternateBounds"/>
                    </mxGeometry>
                </mxCell>
                <mxCell id="148" value="2" style="shape=partialRectangle;html=1;whiteSpace=wrap;connectable=0;overflow=hidden;top=1;left=1;bottom=1;right=1;pointerEvents=1;strokeColor=#FFFFFF;perimeterSpacing=1;" vertex="1" parent="146">
                    <mxGeometry x="44" width="45" height="38" as="geometry">
                        <mxRectangle width="45" height="38" as="alternateBounds"/>
                    </mxGeometry>
                </mxCell>
                <mxCell id="149" value="1" style="shape=partialRectangle;html=1;whiteSpace=wrap;connectable=0;overflow=hidden;top=1;left=1;bottom=1;right=1;pointerEvents=1;strokeColor=#FFFFFF;perimeterSpacing=1;" vertex="1" parent="146">
                    <mxGeometry x="89" width="44" height="38" as="geometry">
                        <mxRectangle width="44" height="38" as="alternateBounds"/>
                    </mxGeometry>
                </mxCell>
                <mxCell id="150" value="1" style="shape=partialRectangle;html=1;whiteSpace=wrap;connectable=0;overflow=hidden;top=1;left=1;bottom=1;right=1;pointerEvents=1;strokeColor=#FFFFFF;perimeterSpacing=1;" vertex="1" parent="146">
                    <mxGeometry x="133" width="45" height="38" as="geometry">
                        <mxRectangle width="45" height="38" as="alternateBounds"/>
                    </mxGeometry>
                </mxCell>
                <mxCell id="151" value="1" style="shape=partialRectangle;html=1;whiteSpace=wrap;connectable=0;overflow=hidden;top=1;left=1;bottom=1;right=1;pointerEvents=1;strokeColor=#FFFFFF;perimeterSpacing=1;fillColor=#36303B;" vertex="1" parent="146">
                    <mxGeometry x="178" width="44" height="38" as="geometry">
                        <mxRectangle width="44" height="38" as="alternateBounds"/>
                    </mxGeometry>
                </mxCell>
                <mxCell id="152" value="1" style="shape=partialRectangle;html=1;whiteSpace=wrap;connectable=0;overflow=hidden;top=1;left=1;bottom=1;right=1;pointerEvents=1;strokeColor=#FFFFFF;perimeterSpacing=1;fillColor=#36303B;" vertex="1" parent="146">
                    <mxGeometry x="222" width="45" height="38" as="geometry">
                        <mxRectangle width="45" height="38" as="alternateBounds"/>
                    </mxGeometry>
                </mxCell>
                <mxCell id="153" value="" style="shape=partialRectangle;html=1;whiteSpace=wrap;connectable=0;overflow=hidden;top=1;left=1;bottom=1;right=1;pointerEvents=1;strokeColor=#FFFFFF;perimeterSpacing=1;" vertex="1" parent="146">
                    <mxGeometry x="267" width="44" height="38" as="geometry">
                        <mxRectangle width="44" height="38" as="alternateBounds"/>
                    </mxGeometry>
                </mxCell>
                <mxCell id="154" value="1" style="shape=partialRectangle;html=1;whiteSpace=wrap;connectable=0;overflow=hidden;top=1;left=1;bottom=1;right=1;pointerEvents=1;strokeColor=#FFFFFF;perimeterSpacing=1;" vertex="1" parent="146">
                    <mxGeometry x="311" width="45" height="38" as="geometry">
                        <mxRectangle width="45" height="38" as="alternateBounds"/>
                    </mxGeometry>
                </mxCell>
                <mxCell id="155" value="1" style="shape=partialRectangle;html=1;whiteSpace=wrap;connectable=0;overflow=hidden;top=1;left=1;bottom=1;right=1;pointerEvents=1;strokeColor=#FFFFFF;perimeterSpacing=1;" vertex="1" parent="146">
                    <mxGeometry x="356" width="44" height="38" as="geometry">
                        <mxRectangle width="44" height="38" as="alternateBounds"/>
                    </mxGeometry>
                </mxCell>
                <mxCell id="156" value="" style="shape=tableRow;horizontal=0;startSize=0;swimlaneHead=0;swimlaneBody=0;top=1;left=1;bottom=1;right=1;collapsible=0;dropTarget=0;points=[[0,0.5],[1,0.5]];portConstraint=eastwest;strokeColor=#FFFFFF;perimeterSpacing=1;" vertex="1" parent="115">
                    <mxGeometry y="153" width="400" height="39" as="geometry"/>
                </mxCell>
                <mxCell id="157" value="" style="shape=partialRectangle;html=1;whiteSpace=wrap;connectable=0;overflow=hidden;top=1;left=1;bottom=1;right=1;pointerEvents=1;perimeterSpacing=1;" vertex="1" parent="156">
                    <mxGeometry width="44" height="39" as="geometry">
                        <mxRectangle width="44" height="39" as="alternateBounds"/>
                    </mxGeometry>
                </mxCell>
                <mxCell id="158" value="" style="shape=partialRectangle;html=1;whiteSpace=wrap;connectable=0;overflow=hidden;top=1;left=1;bottom=1;right=1;pointerEvents=1;strokeColor=#FFFFFF;perimeterSpacing=1;" vertex="1" parent="156">
                    <mxGeometry x="44" width="45" height="39" as="geometry">
                        <mxRectangle width="45" height="39" as="alternateBounds"/>
                    </mxGeometry>
                </mxCell>
                <mxCell id="159" value="" style="shape=partialRectangle;html=1;whiteSpace=wrap;connectable=0;overflow=hidden;top=1;left=1;bottom=1;right=1;pointerEvents=1;strokeColor=#FFFFFF;perimeterSpacing=1;" vertex="1" parent="156">
                    <mxGeometry x="89" width="44" height="39" as="geometry">
                        <mxRectangle width="44" height="39" as="alternateBounds"/>
                    </mxGeometry>
                </mxCell>
                <mxCell id="160" value="1" style="shape=partialRectangle;html=1;whiteSpace=wrap;connectable=0;overflow=hidden;top=1;left=1;bottom=1;right=1;pointerEvents=1;strokeColor=#FFFFFF;perimeterSpacing=1;" vertex="1" parent="156">
                    <mxGeometry x="133" width="45" height="39" as="geometry">
                        <mxRectangle width="45" height="39" as="alternateBounds"/>
                    </mxGeometry>
                </mxCell>
                <mxCell id="161" value="" style="shape=partialRectangle;html=1;whiteSpace=wrap;connectable=0;overflow=hidden;top=1;left=1;bottom=1;right=1;pointerEvents=1;strokeColor=#FFFFFF;perimeterSpacing=1;fillColor=#36303B;" vertex="1" parent="156">
                    <mxGeometry x="178" width="44" height="39" as="geometry">
                        <mxRectangle width="44" height="39" as="alternateBounds"/>
                    </mxGeometry>
                </mxCell>
                <mxCell id="162" value="" style="shape=partialRectangle;html=1;whiteSpace=wrap;connectable=0;overflow=hidden;top=1;left=1;bottom=1;right=1;pointerEvents=1;strokeColor=#FFFFFF;perimeterSpacing=1;fillColor=#36303B;" vertex="1" parent="156">
                    <mxGeometry x="222" width="45" height="39" as="geometry">
                        <mxRectangle width="45" height="39" as="alternateBounds"/>
                    </mxGeometry>
                </mxCell>
                <mxCell id="163" value="" style="shape=partialRectangle;html=1;whiteSpace=wrap;connectable=0;overflow=hidden;top=1;left=1;bottom=1;right=1;pointerEvents=1;strokeColor=#FFFFFF;perimeterSpacing=1;" vertex="1" parent="156">
                    <mxGeometry x="267" width="44" height="39" as="geometry">
                        <mxRectangle width="44" height="39" as="alternateBounds"/>
                    </mxGeometry>
                </mxCell>
                <mxCell id="164" value="1" style="shape=partialRectangle;html=1;whiteSpace=wrap;connectable=0;overflow=hidden;top=1;left=1;bottom=1;right=1;pointerEvents=1;strokeColor=#FFFFFF;perimeterSpacing=1;" vertex="1" parent="156">
                    <mxGeometry x="311" width="45" height="39" as="geometry">
                        <mxRectangle width="45" height="39" as="alternateBounds"/>
                    </mxGeometry>
                </mxCell>
                <mxCell id="165" value="1" style="shape=partialRectangle;html=1;whiteSpace=wrap;connectable=0;overflow=hidden;top=1;left=1;bottom=1;right=1;pointerEvents=1;strokeColor=#FFFFFF;perimeterSpacing=1;" vertex="1" parent="156">
                    <mxGeometry x="356" width="44" height="39" as="geometry">
                        <mxRectangle width="44" height="39" as="alternateBounds"/>
                    </mxGeometry>
                </mxCell>
                <mxCell id="166" value="" style="shape=tableRow;horizontal=0;startSize=0;swimlaneHead=0;swimlaneBody=0;top=1;left=1;bottom=1;right=1;collapsible=0;dropTarget=0;points=[[0,0.5],[1,0.5]];portConstraint=eastwest;" vertex="1" parent="115">
                    <mxGeometry y="192" width="400" height="38" as="geometry"/>
                </mxCell>
                <mxCell id="167" value="" style="shape=partialRectangle;html=1;whiteSpace=wrap;connectable=0;overflow=hidden;top=1;left=1;bottom=1;right=1;pointerEvents=1;" vertex="1" parent="166">
                    <mxGeometry width="44" height="38" as="geometry">
                        <mxRectangle width="44" height="38" as="alternateBounds"/>
                    </mxGeometry>
                </mxCell>
                <mxCell id="168" value="LD" style="shape=partialRectangle;html=1;whiteSpace=wrap;connectable=0;overflow=hidden;top=1;left=1;bottom=1;right=1;pointerEvents=1;" vertex="1" parent="166">
                    <mxGeometry x="44" width="45" height="38" as="geometry">
                        <mxRectangle width="45" height="38" as="alternateBounds"/>
                    </mxGeometry>
                </mxCell>
                <mxCell id="169" value="1" style="shape=partialRectangle;html=1;whiteSpace=wrap;connectable=0;overflow=hidden;top=1;left=1;bottom=1;right=1;pointerEvents=1;" vertex="1" parent="166">
                    <mxGeometry x="89" width="44" height="38" as="geometry">
                        <mxRectangle width="44" height="38" as="alternateBounds"/>
                    </mxGeometry>
                </mxCell>
                <mxCell id="170" value="" style="shape=partialRectangle;html=1;whiteSpace=wrap;connectable=0;overflow=hidden;top=1;left=1;bottom=1;right=1;pointerEvents=1;" vertex="1" parent="166">
                    <mxGeometry x="133" width="45" height="38" as="geometry">
                        <mxRectangle width="45" height="38" as="alternateBounds"/>
                    </mxGeometry>
                </mxCell>
                <mxCell id="171" value="" style="shape=partialRectangle;html=1;whiteSpace=wrap;connectable=0;overflow=hidden;top=1;left=1;bottom=1;right=1;pointerEvents=1;fillColor=#36303B;" vertex="1" parent="166">
                    <mxGeometry x="178" width="44" height="38" as="geometry">
                        <mxRectangle width="44" height="38" as="alternateBounds"/>
                    </mxGeometry>
                </mxCell>
                <mxCell id="172" value="" style="shape=partialRectangle;html=1;whiteSpace=wrap;connectable=0;overflow=hidden;top=1;left=1;bottom=1;right=1;pointerEvents=1;fillColor=#36303B;" vertex="1" parent="166">
                    <mxGeometry x="222" width="45" height="38" as="geometry">
                        <mxRectangle width="45" height="38" as="alternateBounds"/>
                    </mxGeometry>
                </mxCell>
                <mxCell id="173" value="" style="shape=partialRectangle;html=1;whiteSpace=wrap;connectable=0;overflow=hidden;top=1;left=1;bottom=1;right=1;pointerEvents=1;" vertex="1" parent="166">
                    <mxGeometry x="267" width="44" height="38" as="geometry">
                        <mxRectangle width="44" height="38" as="alternateBounds"/>
                    </mxGeometry>
                </mxCell>
                <mxCell id="174" value="" style="shape=partialRectangle;html=1;whiteSpace=wrap;connectable=0;overflow=hidden;top=1;left=1;bottom=1;right=1;pointerEvents=1;" vertex="1" parent="166">
                    <mxGeometry x="311" width="45" height="38" as="geometry">
                        <mxRectangle width="45" height="38" as="alternateBounds"/>
                    </mxGeometry>
                </mxCell>
                <mxCell id="175" value="" style="shape=partialRectangle;html=1;whiteSpace=wrap;connectable=0;overflow=hidden;top=1;left=1;bottom=1;right=1;pointerEvents=1;" vertex="1" parent="166">
                    <mxGeometry x="356" width="44" height="38" as="geometry">
                        <mxRectangle width="44" height="38" as="alternateBounds"/>
                    </mxGeometry>
                </mxCell>
                <mxCell id="179" value="- modify on click" style="text;html=1;align=center;verticalAlign=middle;resizable=0;points=[];autosize=1;strokeColor=none;fillColor=none;" vertex="1" parent="1">
                    <mxGeometry x="115" y="325" width="110" height="30" as="geometry"/>
                </mxCell>
            </root>
        </mxGraphModel>
    </diagram>
</mxfile>